<?xml version="1.0" standalone="no"?>
<!DOCTYPE svg PUBLIC "-//W3C//DTD SVG 20010904//EN"
 "http://www.w3.org/TR/2001/REC-SVG-20010904/DTD/svg10.dtd">
<svg version="1.0" xmlns="http://www.w3.org/2000/svg"
 width="1275.000000pt" height="1280.000000pt" viewBox="0 0 1275.000000 1280.000000"
 preserveAspectRatio="xMidYMid meet">
<metadata>
Created by potrace 1.15, written by Peter Selinger 2001-2017
</metadata>
<g transform="translate(0.000000,1280.000000) scale(0.100000,-0.100000)"
fill="#000000" stroke="none">
<path d="M9380 12784 c-199 -42 -367 -198 -424 -393 -22 -74 -20 -129 8 -241
48 -193 89 -267 193 -356 90 -76 129 -94 203 -94 127 0 382 67 465 122 76 50
188 161 218 216 79 146 74 356 -12 489 -134 208 -398 312 -651 257z"/>
<path d="M10783 12576 c-80 -20 -159 -63 -201 -111 -44 -50 -122 -203 -146
-284 -19 -64 -21 -183 -4 -232 17 -53 106 -177 178 -250 77 -78 128 -104 252
-130 153 -31 194 -25 262 39 61 58 178 221 210 291 128 285 -31 619 -322 680
-68 14 -163 13 -229 -3z"/>
<path d="M7660 12319 c-180 -19 -303 -58 -377 -120 -26 -22 -74 -49 -106 -61
-32 -12 -78 -36 -102 -54 -56 -43 -128 -152 -154 -234 -57 -180 -92 -283 -125
-365 -61 -154 -52 -234 56 -505 81 -203 133 -304 174 -338 102 -84 263 -132
471 -139 172 -7 272 6 412 53 255 84 352 183 425 430 49 165 61 263 61 499 -1
239 -12 331 -61 486 -25 79 -31 88 -108 164 -92 92 -177 151 -244 171 -60 19
-216 25 -322 13z"/>
<path d="M11815 11921 c-17 -4 -55 -20 -85 -35 -138 -69 -199 -161 -208 -314
-3 -64 0 -103 11 -143 44 -151 208 -225 347 -157 76 38 200 146 241 209 31 49
34 60 34 129 0 65 -5 85 -32 141 -18 36 -50 86 -72 111 -35 39 -46 46 -104 56
-71 13 -87 13 -132 3z"/>
<path d="M3526 11509 c-129 -32 -293 -165 -351 -284 -26 -52 -29 -69 -28 -145
1 -137 62 -265 151 -317 64 -38 121 -34 270 15 141 48 227 89 264 129 52 55
108 215 108 310 0 59 -32 115 -107 185 -96 89 -214 130 -307 107z"/>
<path d="M2305 11388 c-69 -25 -159 -109 -197 -183 -30 -58 -38 -112 -39 -284
l-1 -173 42 -86 c56 -113 117 -175 195 -198 115 -33 210 -1 307 105 68 75 123
180 139 266 23 121 -7 309 -63 405 -33 56 -79 100 -133 128 -40 20 -67 26
-135 29 -47 1 -98 -2 -115 -9z"/>
<path d="M9885 11329 c-155 -20 -301 -86 -383 -173 -49 -52 -64 -84 -77 -166
-9 -59 -75 -160 -161 -245 -86 -85 -154 -131 -256 -173 -61 -25 -71 -26 -278
-27 -118 -1 -228 -5 -245 -10 -62 -16 -130 -59 -199 -124 -79 -74 -152 -122
-366 -239 -103 -56 -152 -89 -167 -112 -29 -41 -89 -227 -98 -300 -8 -64 9
-329 31 -480 21 -141 48 -218 148 -419 l85 -169 108 -26 c157 -37 269 -49 412
-44 125 4 127 4 321 72 107 37 260 88 340 112 269 82 674 174 766 174 78 0
116 -50 73 -96 -28 -30 -70 -42 -196 -54 -54 -5 -145 -23 -203 -40 -512 -150
-793 -221 -1050 -265 -280 -47 -384 -71 -405 -95 -13 -15 -15 -28 -10 -60 10
-56 78 -190 129 -253 72 -90 107 -146 166 -271 40 -83 70 -133 93 -153 44 -39
132 -73 216 -83 43 -6 71 -15 84 -29 19 -19 19 -21 4 -45 -9 -14 -37 -39 -62
-56 -25 -17 -48 -42 -51 -55 -9 -34 88 -228 131 -260 39 -31 165 -89 225 -105
75 -20 96 -36 153 -119 37 -52 72 -88 102 -107 166 -103 199 -166 228 -434
l12 -115 40 -7 c74 -13 160 -8 230 13 181 54 180 54 258 35 144 -33 162 -32
257 14 l85 42 96 -6 c162 -10 248 17 351 112 107 100 193 243 292 487 121 298
198 397 250 323 51 -72 -35 -365 -184 -630 -34 -60 -113 -177 -176 -260 -160
-214 -190 -279 -141 -311 59 -39 276 -108 600 -191 98 -26 229 -63 290 -83
278 -90 348 -45 393 251 17 113 28 166 54 251 11 33 24 88 30 121 6 34 21 89
35 122 13 33 40 121 59 196 20 76 51 172 70 214 19 43 41 111 48 152 19 113
16 503 -6 665 -41 297 -120 501 -216 550 -33 17 -142 38 -345 65 -254 35 -386
75 -603 184 -148 74 -269 158 -382 263 -186 174 -187 174 -370 28 -102 -81
-194 -185 -231 -261 -32 -64 -34 -74 -32 -164 3 -214 93 -494 219 -684 42 -64
52 -107 29 -129 -9 -10 -23 -17 -30 -17 -41 0 -144 130 -197 249 -57 128 -70
151 -89 162 -22 11 -59 -4 -59 -24 0 -7 -23 -69 -51 -138 -29 -70 -49 -134
-46 -142 14 -37 58 -52 172 -57 l110 -5 3 -32 c5 -54 -28 -74 -219 -128 l-56
-15 1 -245 c1 -221 -1 -246 -17 -262 -23 -24 -40 -12 -97 65 -25 34 -47 61
-51 62 -3 0 -45 -34 -94 -77 -151 -129 -225 -164 -238 -111 -10 38 22 82 193
263 71 76 110 135 110 168 0 8 -8 25 -19 38 -18 23 -20 23 -95 10 -66 -11 -84
-10 -130 3 -130 38 -139 121 -25 241 l52 55 103 0 c92 0 105 2 123 21 52 56
143 269 186 435 14 54 33 109 42 123 10 16 18 62 24 136 14 194 29 235 119
332 58 62 157 212 192 291 11 24 16 51 13 63 -4 11 -35 43 -70 70 -78 61 -141
153 -195 282 -83 199 -123 451 -83 527 13 25 26 36 46 38 52 6 60 -11 53 -118
-7 -106 -7 -109 72 -336 56 -164 86 -218 143 -268 89 -76 178 -92 242 -43 19
14 111 106 203 204 337 356 380 393 423 366 9 -6 17 -17 19 -25 4 -20 -75
-138 -211 -313 -144 -185 -181 -255 -181 -345 0 -81 27 -140 100 -220 174
-188 581 -353 994 -405 74 -9 175 -25 225 -36 147 -31 180 -25 247 49 75 83
86 183 34 309 -38 93 -46 168 -46 483 l0 286 -76 66 c-41 37 -107 83 -145 103
-81 42 -256 110 -402 155 -142 44 -160 55 -154 88 3 15 11 42 18 60 23 55 7
67 -90 68 -44 0 -83 3 -86 5 -2 3 18 41 46 85 27 43 52 89 55 100 10 40 -106
243 -193 335 -71 76 -350 267 -509 348 -76 39 -170 95 -208 126 -104 83 -122
92 -267 129 -216 55 -371 68 -554 45z m1925 -3129 c11 -11 20 -23 20 -28 0
-22 -36 -53 -86 -71 -122 -46 -201 -104 -254 -188 -28 -44 -63 -76 -120 -110
-67 -41 -236 -120 -331 -156 -112 -44 -196 -110 -224 -179 -9 -23 -47 -84 -85
-134 -37 -51 -96 -138 -131 -194 -35 -55 -101 -157 -146 -225 -45 -68 -108
-172 -140 -231 -71 -130 -136 -204 -179 -204 -68 0 -71 46 -8 120 28 33 74
112 120 209 42 86 111 208 153 271 43 63 131 203 196 310 65 107 136 221 158
253 71 102 237 210 349 228 109 17 201 69 338 189 83 73 139 108 220 137 81
28 124 29 150 3z"/>
<path d="M12278 11156 c-76 -27 -205 -142 -232 -207 -12 -30 -13 -49 -5 -100
21 -129 102 -231 252 -317 91 -52 157 -66 255 -52 125 17 163 51 187 167 23
110 20 143 -25 229 -77 148 -173 253 -259 282 -45 16 -127 14 -173 -2z"/>
<path d="M5170 10979 c-168 -20 -396 -109 -445 -173 -37 -49 -101 -192 -126
-281 -20 -73 -21 -95 -16 -255 7 -181 27 -336 52 -396 8 -19 37 -58 65 -88 49
-52 75 -68 130 -80 14 -3 55 -24 90 -47 123 -79 466 -242 602 -284 68 -22 101
-15 187 37 68 41 88 69 101 137 10 51 20 72 83 174 39 63 57 158 64 328 9 236
-26 360 -172 613 -111 191 -155 243 -239 286 -66 34 -73 35 -185 37 -64 0
-150 -3 -191 -8z"/>
<path d="M1030 10871 c-53 -16 -91 -43 -121 -84 -32 -44 -39 -57 -99 -203
l-37 -91 37 -106 c21 -58 49 -126 63 -150 72 -123 177 -216 326 -289 70 -34
96 -42 145 -42 97 -1 168 50 223 159 37 74 48 143 48 305 0 175 -8 200 -85
293 -127 155 -359 251 -500 208z"/>
<path d="M3110 10523 c-19 -3 -95 -18 -169 -34 -136 -30 -220 -59 -321 -109
-31 -16 -84 -38 -119 -49 -82 -27 -136 -58 -203 -119 -69 -63 -178 -137 -360
-247 -147 -88 -214 -136 -414 -295 -174 -138 -233 -199 -303 -312 -142 -227
-191 -312 -201 -347 -13 -50 -100 -135 -230 -224 -116 -80 -240 -192 -277
-250 -36 -58 -64 -178 -66 -282 0 -69 7 -120 31 -221 17 -72 40 -196 52 -275
31 -213 52 -278 115 -347 45 -51 92 -62 258 -62 156 0 272 15 367 46 253 84
953 484 1016 579 43 66 21 164 -49 218 -19 14 -133 76 -253 138 -370 188 -434
230 -434 288 0 28 3 31 31 31 18 0 96 -32 187 -76 181 -88 231 -106 255 -92
22 12 21 34 -4 156 -11 56 -19 120 -17 144 3 42 4 43 40 46 49 4 59 -13 92
-153 25 -103 78 -235 95 -235 4 0 26 19 48 43 48 48 76 106 93 190 15 73 46
113 83 103 46 -11 50 -68 15 -199 -12 -47 -35 -99 -56 -129 l-35 -51 19 -35
c22 -40 59 -72 86 -72 30 0 72 25 109 67 51 56 75 99 108 194 16 46 46 121 66
166 19 45 41 109 46 142 14 78 36 105 106 131 64 24 106 23 111 -2 2 -9 -44
-116 -103 -236 -134 -279 -137 -293 -102 -454 15 -68 30 -161 34 -208 3 -47
10 -90 15 -96 4 -6 25 -14 46 -18 20 -3 50 -16 67 -30 28 -23 29 -24 12 -49
-25 -39 -80 -50 -151 -32 -64 17 -84 26 -207 96 -102 59 -143 73 -173 58 -11
-6 -86 -77 -166 -158 -284 -287 -557 -458 -1100 -690 -275 -118 -569 -263
-611 -302 l-32 -30 7 -102 c25 -386 78 -636 185 -875 27 -59 65 -159 86 -222
57 -175 135 -367 161 -395 22 -24 27 -25 157 -25 73 0 216 -5 318 -12 101 -7
213 -12 248 -13 l65 0 34 45 c29 38 33 50 29 83 -3 21 -18 64 -34 95 -22 45
-41 66 -88 98 -90 61 -84 96 24 128 105 31 231 15 231 -28 0 -8 -13 -42 -30
-78 -35 -75 -51 -150 -40 -188 4 -15 29 -54 54 -86 55 -70 60 -106 19 -128
-82 -42 -240 -60 -411 -46 -70 6 -161 13 -203 17 -100 8 -142 -1 -185 -39 -58
-51 -94 -144 -94 -246 0 -75 19 -112 95 -185 l67 -64 -26 -41 c-38 -60 -45
-109 -46 -288 0 -189 8 -237 56 -353 67 -158 83 -209 109 -337 44 -210 81
-284 144 -284 32 0 67 37 151 160 21 30 70 91 109 135 39 44 112 127 161 185
176 204 204 232 299 304 115 87 181 156 181 189 0 28 -39 67 -67 67 -11 0 -52
-12 -89 -26 -94 -35 -267 -74 -334 -74 -58 0 -100 19 -100 46 0 38 250 124
415 143 55 7 138 17 185 22 47 6 123 24 170 40 65 22 116 32 215 40 142 11
771 101 875 125 81 19 137 51 204 119 123 125 183 336 120 423 -27 37 -118 82
-166 82 -21 0 -107 14 -191 31 -144 29 -159 31 -287 23 -206 -12 -223 -10
-319 38 l-85 42 -80 -13 c-45 -7 -109 -15 -144 -18 -60 -5 -64 -4 -115 35 -78
59 -109 72 -176 72 -49 0 -75 8 -158 46 -155 72 -186 88 -187 99 -1 15 109 18
199 5 44 -6 149 -25 233 -41 195 -37 224 -37 251 -3 41 52 19 112 -85 226 -92
101 -146 186 -257 405 -79 157 -105 198 -147 237 -107 100 -229 134 -540 146
-322 14 -448 33 -518 78 -27 18 -29 53 -2 77 21 19 23 19 170 -4 36 -5 153
-13 260 -16 182 -6 333 -19 366 -32 25 -9 15 15 -41 107 -128 207 -161 335
-95 370 34 18 54 -3 89 -96 18 -47 48 -112 67 -144 70 -119 230 -316 277 -342
12 -6 78 -15 148 -19 70 -5 187 -18 260 -29 151 -24 206 -20 247 15 25 22 27
28 25 97 -2 104 -101 430 -192 630 -39 88 -42 96 -35 124 9 36 41 50 65 28 48
-44 129 -228 204 -469 137 -438 142 -448 206 -465 57 -16 664 -16 784 0 50 6
123 18 163 26 90 18 809 257 872 289 129 66 153 80 162 101 16 34 2 71 -46
118 -89 90 -206 124 -576 172 -228 28 -259 34 -282 46 -23 11 -23 54 -1 62 9
4 99 10 200 13 l182 6 -57 43 c-118 90 -129 106 -96 138 33 33 78 16 264 -101
248 -157 355 -184 479 -122 71 36 77 44 121 189 17 58 59 191 92 295 80 255
94 318 117 540 12 105 33 276 48 380 l26 190 -62 127 c-66 133 -107 185 -172
218 -57 30 -506 196 -603 225 -109 31 -286 48 -526 49 -195 1 -195 1 -293 -31
-119 -40 -178 -43 -212 -9 -28 28 -31 49 -45 296 -6 102 -17 228 -25 280 -8
52 -15 131 -15 175 -1 102 -19 142 -97 217 -45 42 -73 60 -114 72 -96 28 -296
42 -409 29z m-448 -489 c48 -19 124 -43 169 -53 131 -31 120 -45 -40 -54 -59
-4 -116 -9 -125 -13 -20 -8 -19 -18 16 -166 22 -95 19 -133 -13 -143 -33 -11
-66 20 -86 77 -10 29 -48 113 -85 187 -73 145 -82 186 -45 201 35 15 113 2
209 -36z m-322 -4022 c0 -25 -22 -43 -95 -80 -88 -44 -159 -62 -243 -62 -40 0
-108 -9 -150 -19 -130 -33 -422 -61 -629 -61 -140 0 -176 13 -171 63 2 23 12
36 38 52 33 19 56 20 410 26 408 7 478 15 646 69 107 35 194 40 194 12z m148
-728 c27 -19 28 -34 2 -84 -11 -22 -25 -62 -31 -89 -5 -27 -18 -56 -27 -65
-10 -8 -67 -39 -127 -67 -147 -70 -215 -110 -310 -184 -44 -34 -149 -108 -233
-164 -84 -56 -177 -124 -207 -151 -99 -90 -135 -101 -135 -41 0 38 71 116 189
210 84 66 140 129 175 198 21 42 51 57 156 78 164 33 284 122 350 260 22 46
50 91 62 99 29 20 107 20 136 0z"/>
<path d="M285 9884 c-146 -45 -183 -64 -220 -114 -59 -81 -68 -113 -61 -215
20 -277 92 -429 238 -504 77 -38 140 -47 238 -32 104 16 182 54 235 113 58 65
80 130 80 238 -1 168 -56 303 -160 397 -101 92 -166 127 -239 130 -35 1 -83
-4 -111 -13z"/>
<path d="M4955 6636 c-27 -7 -77 -23 -110 -35 -92 -33 -627 -197 -740 -226
-62 -16 -142 -28 -212 -32 -134 -7 -150 -14 -108 -48 69 -57 392 -217 535
-265 79 -26 183 -30 227 -7 36 19 56 43 124 148 27 43 76 100 110 130 34 30
83 75 109 101 53 53 172 227 164 240 -7 11 -39 9 -99 -6z"/>
<path d="M2472 6413 c-11 -19 -1 -61 35 -148 34 -82 95 -185 109 -185 26 0
194 240 194 277 0 33 -28 43 -158 59 -152 18 -169 17 -180 -3z"/>
<path d="M3212 6327 c-29 -30 -28 -40 12 -214 49 -211 75 -273 113 -273 22 0
133 41 236 86 53 24 104 44 112 44 19 0 38 -36 30 -60 -4 -13 -65 -49 -178
-106 -95 -48 -203 -106 -242 -129 -85 -52 -118 -61 -139 -39 -19 18 -19 22 -4
94 9 46 8 68 -7 135 -25 115 -101 379 -125 431 -17 40 -22 44 -39 35 -11 -6
-23 -20 -26 -31 -8 -24 -107 -160 -181 -247 l-53 -62 48 -108 c27 -60 56 -133
66 -163 20 -62 98 -146 143 -156 49 -10 80 -25 103 -50 12 -13 39 -28 58 -33
77 -20 329 -35 611 -35 329 -1 300 -6 425 77 161 107 236 232 206 344 -16 60
-56 92 -132 104 -123 19 -322 95 -629 239 -322 151 -364 164 -408 117z"/>
<path d="M10025 6155 c-27 -8 -149 -28 -270 -45 -243 -34 -336 -54 -365 -79
-30 -25 -120 -309 -120 -378 0 -103 45 -156 158 -188 31 -8 100 -29 152 -45
105 -34 115 -33 210 15 131 66 283 185 338 264 54 77 149 269 167 338 17 63
11 99 -16 114 -33 17 -199 20 -254 4z"/>
<path d="M10496 6090 c-46 -41 -111 -169 -202 -401 -41 -107 -87 -211 -100
-232 -14 -21 -76 -76 -142 -124 -138 -103 -195 -157 -247 -238 -21 -33 -67
-88 -103 -122 -56 -53 -66 -68 -66 -97 0 -101 119 -153 255 -112 124 38 380
204 539 351 59 53 101 79 233 144 192 95 326 150 385 158 l42 6 0 -42 c0 -23
-5 -51 -10 -62 -15 -26 -70 -60 -161 -96 -137 -55 -199 -111 -185 -167 14 -58
140 -179 423 -410 73 -59 147 -126 165 -149 18 -23 101 -110 184 -194 139
-140 191 -179 211 -159 18 17 22 167 16 539 l-6 408 -66 62 c-37 34 -114 98
-171 141 -167 126 -224 180 -311 292 -131 171 -361 385 -533 496 -72 46 -104
48 -150 8z"/>
<path d="M11233 5794 c-27 -70 125 -253 342 -414 161 -120 223 -143 265 -98
29 31 71 170 77 254 5 69 5 71 -26 96 -58 50 -299 127 -509 163 -109 19 -141
19 -149 -1z"/>
<path d="M10497 4931 c-64 -33 -148 -80 -187 -105 -91 -59 -164 -96 -290 -146
-171 -68 -218 -97 -315 -189 -49 -48 -112 -100 -140 -115 -130 -75 -251 -194
-361 -356 l-72 -105 -7 -260 c-8 -305 9 -998 30 -1235 62 -691 122 -887 372
-1221 62 -83 74 -94 147 -131 93 -47 269 -113 346 -129 148 -32 577 39 741
121 110 56 334 295 464 493 131 202 281 581 375 951 65 260 75 329 73 531 -2
118 4 251 17 385 11 113 22 264 25 335 3 72 8 142 10 156 4 24 -8 36 -103 110
-96 75 -397 359 -608 573 -45 45 -127 144 -183 220 -102 138 -144 176 -192
176 -15 0 -79 -27 -142 -59z m-581 -649 c56 -41 106 -105 219 -277 129 -197
246 -316 430 -436 195 -128 375 -284 538 -464 95 -105 133 -170 121 -207 -3
-12 -26 -42 -49 -67 -60 -65 -71 -91 -100 -242 -50 -251 -163 -553 -240 -637
-40 -45 -67 -52 -97 -25 -24 22 -23 40 7 93 61 109 86 163 120 261 46 131 99
346 121 487 15 100 15 113 0 163 -21 76 -100 184 -230 318 -134 137 -200 189
-331 266 -55 32 -117 76 -139 99 -83 87 -306 378 -306 398 0 11 -61 99 -125
181 -46 60 -54 84 -33 105 20 20 52 14 94 -16z"/>
<path d="M3080 4364 c-14 -3 -54 -14 -90 -25 -55 -17 -88 -20 -206 -17 -139 3
-141 3 -182 -25 -23 -15 -68 -60 -100 -100 -73 -93 -127 -142 -232 -215 -133
-91 -152 -134 -105 -234 44 -94 32 -108 -97 -108 -66 0 -92 -4 -122 -21 -64
-34 -116 -80 -151 -134 -18 -27 -70 -93 -115 -145 -91 -106 -142 -184 -161
-248 -10 -34 -10 -64 2 -160 22 -182 18 -417 -9 -525 -12 -49 -22 -120 -22
-159 0 -82 34 -260 85 -438 19 -69 62 -231 95 -360 33 -129 72 -264 87 -299
42 -102 117 -207 237 -330 61 -64 158 -167 216 -229 123 -135 247 -241 390
-335 122 -79 337 -189 427 -217 72 -22 333 -45 435 -38 162 12 438 202 566
390 60 89 191 325 201 363 59 227 97 698 71 864 -13 79 -32 115 -114 225 -36
48 -66 93 -66 100 0 19 -75 124 -128 178 l-46 48 17 35 c25 53 21 84 -25 197
l-43 103 3 167 3 166 -56 63 c-64 71 -118 159 -166 267 -17 39 -35 72 -39 72
-19 0 -134 -87 -228 -173 -175 -158 -270 -285 -339 -453 -28 -70 -32 -88 -22
-95 8 -5 122 -8 254 -7 266 3 323 -5 353 -50 15 -23 15 -25 -4 -39 -23 -17
-62 -11 -178 23 -101 30 -159 30 -252 -1 -91 -31 -260 -114 -302 -150 -17 -14
-48 -54 -69 -88 -21 -34 -71 -111 -112 -172 -41 -60 -105 -175 -143 -254 -78
-162 -117 -223 -166 -253 -31 -19 -35 -19 -49 -5 -15 15 -11 26 40 129 70 141
219 406 392 698 73 124 136 235 139 247 10 33 -46 93 -88 93 -37 0 -241 -98
-333 -160 -64 -43 -108 -53 -124 -29 -15 24 -10 38 28 80 75 82 325 179 466
179 88 0 115 16 193 116 91 117 184 223 326 370 127 133 143 162 127 234 -12
53 -38 104 -104 207 -77 117 -118 159 -176 178 -39 13 -50 22 -55 43 -17 77
-61 138 -140 192 -65 45 -85 120 -32 120 31 0 111 -48 183 -110 57 -48 84 -63
214 -121 30 -13 70 -36 89 -51 39 -31 70 -35 112 -13 57 29 56 84 -4 211 -85
178 -161 222 -401 229 -71 2 -141 1 -155 -1z m80 -566 c0 -17 -16 -60 -35 -95
-77 -139 -119 -182 -404 -398 -270 -206 -440 -406 -606 -715 -80 -149 -139
-240 -201 -309 -50 -55 -69 -63 -79 -30 -18 55 268 537 458 774 96 119 286
299 422 400 143 106 212 169 273 250 65 86 133 155 154 155 14 0 18 -8 18 -32z"/>
</g>
</svg>
