<?xml version="1.0" standalone="no"?>
<!DOCTYPE svg PUBLIC "-//W3C//DTD SVG 20010904//EN"
 "http://www.w3.org/TR/2001/REC-SVG-20010904/DTD/svg10.dtd">
<svg version="1.0" xmlns="http://www.w3.org/2000/svg"
 width="1280.000000pt" height="1214.000000pt" viewBox="0 0 1280.000000 1214.000000"
 preserveAspectRatio="xMidYMid meet">
<metadata>
Created by potrace 1.15, written by Peter Selinger 2001-2017
</metadata>
<g transform="translate(0.000000,1214.000000) scale(0.100000,-0.100000)"
fill="#000000" stroke="none">
<path d="M5146 12129 c-59 -14 -185 -84 -244 -135 -60 -52 -124 -134 -171
-216 -81 -143 -99 -630 -36 -953 36 -182 99 -543 140 -800 26 -163 45 -251 65
-303 28 -71 29 -73 12 -110 -14 -30 -17 -69 -17 -212 0 -159 4 -193 37 -370
20 -107 55 -314 78 -460 40 -258 59 -331 93 -359 25 -20 79 -10 200 38 119 46
137 49 160 23 16 -17 15 -20 -8 -42 -24 -22 -34 -60 -17 -60 5 0 34 9 65 19
57 20 57 20 68 0 15 -28 4 -38 -102 -94 -52 -28 -103 -63 -119 -83 -43 -52
-81 -164 -90 -262 -6 -74 -4 -97 17 -175 77 -285 168 -458 327 -623 83 -86
142 -122 220 -133 70 -10 103 0 178 53 62 43 175 248 207 375 53 207 46 553
-16 746 -12 38 -22 51 -51 66 -53 26 -128 49 -200 60 -91 14 -120 45 -67 69
32 15 89 15 154 1 62 -13 81 -4 115 54 44 74 57 154 63 387 4 170 2 233 -10
300 -13 69 -124 553 -152 662 -6 22 -15 28 -56 37 -28 6 -63 11 -80 11 -79 0
-416 -44 -508 -66 -126 -31 -167 -29 -194 8 -29 39 -13 68 64 110 51 27 65 41
71 66 11 41 65 81 186 139 80 37 104 44 170 47 96 5 279 39 295 55 6 6 17 29
23 49 9 31 7 47 -14 102 -37 100 -92 325 -92 378 0 26 -5 65 -10 87 -5 23 -23
162 -40 310 -31 278 -86 621 -121 760 -12 44 -34 115 -51 158 -54 140 -178
246 -329 282 -70 16 -153 18 -213 4z"/>
<path d="M7730 11875 c-14 -8 -32 -12 -41 -9 -18 5 -89 -32 -89 -46 0 -4 -20
-20 -44 -34 -91 -53 -205 -209 -253 -347 -25 -74 -47 -204 -63 -389 -6 -69
-18 -189 -27 -268 -18 -162 -13 -543 8 -667 7 -38 11 -104 8 -145 -6 -111 -5
-348 2 -355 4 -3 51 6 105 21 120 32 268 42 333 22 25 -7 46 -19 48 -25 6 -17
-71 -42 -175 -57 -52 -8 -96 -17 -99 -20 -12 -12 20 -34 80 -56 59 -21 107
-53 107 -72 0 -5 -19 -18 -42 -28 -36 -16 -66 -20 -185 -20 -78 0 -153 -4
-166 -9 -20 -8 -26 -20 -35 -73 -19 -108 -21 -125 -56 -443 -41 -369 -58 -610
-48 -685 l7 -55 68 -3 c62 -3 69 -5 80 -29 10 -23 8 -28 -19 -52 -17 -15 -63
-38 -102 -50 -40 -13 -75 -28 -78 -32 -3 -5 4 -29 15 -54 l20 -46 -29 -42
c-60 -84 -84 -249 -96 -637 -7 -249 0 -305 53 -403 78 -142 268 -211 411 -149
58 25 182 110 182 124 0 5 14 26 30 47 31 38 120 241 120 273 0 9 13 38 30 65
34 56 73 160 94 253 16 71 11 121 -18 180 -21 45 -92 120 -113 120 -9 0 -35
16 -59 35 -23 19 -46 35 -51 35 -5 0 -23 24 -41 54 -32 52 -36 55 -120 85
-148 53 -164 77 -79 116 60 29 89 30 172 10 33 -8 85 -14 116 -15 32 0 102
-13 160 -30 98 -28 104 -29 122 -12 46 42 124 248 143 382 33 230 38 617 9
692 -4 9 -39 36 -78 59 -73 43 -167 123 -167 142 0 22 96 -1 159 -38 49 -30
67 -36 80 -28 24 15 24 36 2 65 -20 25 -79 57 -214 117 -42 19 -67 36 -65 43
7 19 122 21 204 5 43 -9 75 -11 86 -6 9 5 30 9 47 9 56 0 74 37 83 170 2 19
-10 95 -28 190 -8 41 -16 120 -19 175 -3 55 -10 174 -16 265 -14 205 -16 327
-6 362 4 15 25 47 47 73 51 59 59 89 71 275 12 179 7 301 -21 463 -31 183 -73
278 -169 380 -58 62 -107 91 -201 116 -86 24 -154 26 -190 6z"/>
<path d="M2395 11591 c-85 -6 -96 -9 -194 -61 -90 -48 -110 -63 -149 -115 -71
-95 -84 -133 -89 -260 -6 -126 17 -258 68 -405 16 -47 36 -112 43 -145 28
-119 129 -366 266 -652 91 -188 95 -194 155 -194 37 0 100 17 159 44 32 15 62
27 66 27 4 0 10 -12 13 -27 4 -20 -5 -52 -34 -112 -29 -60 -40 -94 -38 -120 2
-26 -4 -47 -19 -69 -12 -17 -37 -61 -55 -99 -26 -55 -32 -79 -30 -128 2 -94
37 -207 118 -376 40 -86 106 -230 146 -320 39 -90 93 -207 119 -259 26 -52 71
-149 99 -215 66 -152 109 -228 160 -286 56 -64 89 -77 143 -55 33 12 44 13 50
3 13 -20 10 -32 -29 -129 -33 -80 -38 -103 -36 -163 4 -178 115 -443 298 -710
84 -123 114 -159 152 -182 74 -46 115 -56 212 -51 199 9 318 120 367 338 38
172 14 466 -53 638 -14 37 -25 76 -25 87 2 29 -103 238 -139 280 -86 98 -176
84 -364 -55 -267 -197 -265 -196 -265 -132 0 59 60 142 181 250 57 52 140 118
184 147 69 46 87 54 123 52 54 -2 90 28 69 57 -7 9 -31 20 -52 23 -35 4 -56
-3 -160 -58 -66 -34 -156 -88 -201 -120 -105 -76 -130 -87 -149 -68 -11 12 -7
25 29 89 53 93 95 126 219 174 110 43 174 85 183 121 4 14 -1 52 -9 83 -9 31
-21 102 -27 157 -6 55 -16 125 -21 155 -19 103 -89 382 -106 418 -9 21 -17 51
-18 67 -3 32 -87 229 -128 298 -65 110 -148 175 -256 202 l-69 17 -73 -31
c-99 -42 -151 -73 -300 -178 -69 -50 -140 -99 -158 -109 -31 -18 -31 -18 -51
2 l-21 20 30 41 c58 81 134 128 346 217 61 26 118 53 128 60 15 12 16 15 2 26
-22 18 -119 0 -242 -47 -77 -28 -97 -33 -104 -22 -5 8 -9 18 -9 23 0 19 75 77
146 113 69 34 86 38 186 44 60 3 114 11 119 16 6 6 13 59 16 119 13 257 -88
654 -252 989 -104 214 -253 425 -331 471 -48 28 -221 95 -239 92 -5 -1 -50 -4
-100 -7z"/>
<path d="M233 9375 c-103 -32 -173 -95 -209 -190 -28 -73 -26 -242 4 -350 44
-159 170 -439 251 -559 71 -107 192 -105 365 4 63 40 103 49 123 29 21 -21 0
-58 -60 -107 -77 -62 -122 -88 -167 -97 -70 -14 -71 -31 -3 -106 57 -63 81
-54 145 55 28 47 60 61 72 30 11 -28 7 -43 -23 -84 -59 -82 -48 -171 49 -406
139 -340 282 -528 520 -683 132 -87 199 -115 271 -114 63 1 102 22 181 98 48
45 79 66 103 71 45 8 49 4 41 -42 -6 -27 -25 -54 -79 -108 -68 -67 -97 -117
-97 -168 0 -20 136 -218 305 -443 158 -211 409 -478 479 -510 30 -13 57 -16
120 -13 138 7 200 56 266 208 30 69 30 157 0 274 -26 102 -193 442 -283 577
-68 101 -333 420 -346 416 -4 -1 -22 15 -40 35 -18 21 -59 54 -92 73 -69 43
-94 74 -113 146 -22 82 -28 96 -103 209 -151 227 -304 396 -558 616 -77 67
-152 135 -166 150 -38 43 -137 202 -211 339 -105 194 -276 466 -327 518 -118
122 -283 175 -418 132z"/>
<path d="M6740 6484 c-56 -11 -90 -26 -90 -40 0 -23 25 -66 54 -93 25 -24 82
-111 74 -114 -1 -1 -13 -11 -25 -21 -21 -18 -23 -18 -51 2 -41 30 -109 55
-258 96 -209 58 -385 86 -534 86 -128 0 -130 0 -173 31 -78 54 -210 49 -334
-15 -81 -41 -346 -214 -389 -253 -39 -37 -256 -159 -362 -204 -52 -21 -57 -22
-155 -9 -165 22 -340 24 -423 5 -39 -9 -87 -15 -105 -14 -19 1 -54 -4 -79 -10
-66 -19 -296 -142 -367 -198 -33 -26 -99 -70 -146 -96 -95 -55 -242 -169 -278
-217 -13 -17 -34 -42 -46 -56 -12 -13 -45 -78 -72 -144 -28 -65 -70 -150 -93
-187 -46 -76 -118 -225 -155 -322 -41 -109 -86 -361 -78 -433 3 -24 10 -147
14 -273 9 -218 11 -236 40 -324 22 -65 31 -113 31 -157 0 -87 55 -344 93 -429
85 -196 274 -676 267 -680 -4 -3 11 -44 35 -92 23 -49 59 -131 80 -183 66
-167 285 -768 354 -970 51 -149 82 -221 130 -305 72 -124 271 -428 285 -434 5
-2 51 -39 101 -82 237 -200 450 -291 776 -333 196 -25 408 -5 699 69 214 53
226 60 285 147 27 41 58 89 67 107 10 17 38 44 63 59 25 15 114 70 198 123 83
53 190 115 236 139 81 42 84 43 98 24 20 -27 9 -83 -21 -108 -35 -30 -76 -95
-76 -121 0 -22 3 -22 183 -29 100 -3 234 -9 298 -12 127 -7 167 2 150 34 -5
10 -53 67 -105 127 -56 64 -109 135 -126 170 -40 84 -104 283 -129 401 -45
214 -55 708 -17 782 35 69 76 46 76 -43 0 -28 -7 -102 -16 -165 -26 -189 -5
-385 62 -589 80 -239 317 -551 526 -691 222 -149 607 -195 868 -105 36 12 74
23 85 23 27 1 258 101 337 145 191 108 338 301 443 582 41 109 136 434 154
530 21 105 42 158 92 236 62 95 109 207 155 362 47 165 59 278 45 442 -7 72
-13 144 -14 160 -2 17 -29 82 -62 145 -67 130 -123 192 -303 335 -124 99 -147
139 -168 294 -19 145 -17 211 7 311 29 120 27 219 -7 288 -36 73 -151 182
-239 227 -84 43 -183 64 -219 47 -20 -9 -33 -8 -60 3 -74 31 -147 20 -495 -76
-161 -45 -281 -73 -329 -76 -59 -5 -103 -17 -196 -55 -66 -26 -133 -48 -150
-48 -24 0 -44 14 -99 71 -60 62 -72 70 -95 64 -33 -8 -179 -102 -196 -126 -6
-10 -48 -43 -91 -74 -89 -64 -165 -133 -165 -151 0 -7 20 -20 46 -30 40 -15
69 -16 272 -10 125 4 248 11 274 15 29 5 51 4 57 -2 6 -6 50 -13 99 -17 61 -5
122 -19 198 -45 117 -40 286 -122 323 -156 21 -20 41 -59 41 -80 0 -20 -54 -7
-128 30 -43 22 -130 56 -193 76 -63 21 -125 43 -139 51 -14 7 -79 23 -145 35
-108 20 -153 22 -450 23 -181 0 -357 -3 -390 -8 -63 -8 -92 -30 -171 -129 -28
-34 -38 -39 -125 -58 -117 -25 -183 -61 -314 -171 -127 -106 -193 -185 -366
-438 -77 -113 -159 -232 -183 -265 -23 -33 -61 -109 -85 -168 -24 -59 -47
-110 -52 -113 -21 -12 -8 108 20 190 62 183 269 517 427 687 145 158 308 378
292 394 -13 14 -161 -32 -253 -78 -208 -104 -341 -159 -442 -182 -208 -49
-283 -59 -453 -59 -153 -1 -169 1 -217 23 -29 13 -58 30 -65 39 -12 14 -7 15
42 9 242 -30 506 -9 740 59 49 15 183 80 218 107 18 14 -12 45 -53 53 -29 5
-217 -17 -284 -33 -51 -13 -8 17 67 46 88 33 346 101 389 101 15 0 48 10 73
21 56 26 304 75 433 87 87 8 108 14 180 52 45 23 132 67 192 97 275 139 556
323 643 421 l63 71 -24 16 c-14 9 -40 20 -58 25 -51 15 -213 12 -346 -6 -65
-8 -156 -19 -203 -23 -101 -10 -381 -67 -605 -123 -88 -23 -173 -42 -190 -43
-16 -1 -48 -10 -70 -20 -22 -9 -110 -37 -195 -61 -85 -24 -177 -53 -203 -65
-27 -11 -100 -36 -163 -55 -63 -19 -167 -59 -233 -89 -134 -61 -198 -80 -241
-71 -17 3 -41 1 -55 -4 -14 -5 -91 -23 -171 -40 -270 -56 -485 -137 -678 -257
-179 -110 -168 -101 -156 -124 11 -19 19 -20 133 -16 126 4 271 25 367 54 30
9 64 16 76 14 11 -1 55 12 98 29 76 30 116 35 123 15 4 -12 -258 -145 -285
-145 -9 0 -73 -16 -142 -36 -121 -35 -167 -42 -426 -60 -121 -9 -184 6 -234
56 -105 105 -20 212 193 244 96 15 155 35 256 86 35 17 62 26 66 20 4 -6 30 3
65 20 166 84 500 196 620 209 8 1 62 5 120 10 60 4 118 14 135 23 17 9 77 32
135 53 58 21 152 60 210 87 58 27 119 51 135 53 17 1 71 20 120 42 147 65 418
154 630 207 181 45 318 68 460 76 77 5 194 15 260 24 66 8 199 20 297 27 l176
12 122 -28 c147 -33 202 -31 260 11 22 16 62 44 87 62 26 18 89 81 140 140
104 119 168 231 203 352 27 96 38 293 20 382 -16 83 -115 302 -154 342 -17 17
-44 48 -59 68 -15 21 -49 50 -75 64 -26 15 -69 42 -97 59 -106 68 -357 163
-535 201 -110 25 -302 39 -360 28z"/>
<path d="M11965 5583 c-65 -5 -326 -54 -375 -70 -168 -57 -408 -238 -495 -372
-67 -104 -115 -206 -125 -264 -9 -57 -69 -196 -94 -216 -11 -9 -20 -6 -44 14
-38 31 -62 32 -91 1 -23 -25 -51 -116 -51 -169 0 -36 -39 -112 -84 -162 -29
-33 -37 -37 -46 -25 -5 8 -10 24 -10 36 0 11 -9 29 -20 39 -18 16 -21 17 -44
1 -32 -21 -52 -88 -65 -221 -7 -70 -15 -103 -26 -111 -8 -6 -99 -40 -200 -74
-199 -67 -174 -53 -472 -259 l-121 -83 -31 -92 c-39 -120 -55 -244 -41 -332 6
-37 15 -74 19 -83 5 -9 11 -37 14 -62 9 -68 49 -152 112 -233 80 -105 111
-126 181 -126 85 0 145 39 204 133 59 92 188 223 320 322 58 43 150 116 206
161 55 45 115 91 132 102 18 10 54 48 80 83 l47 63 5 143 c8 222 19 216 125
-62 70 -185 90 -224 114 -225 7 0 43 28 81 63 63 58 88 72 426 228 197 92 394
182 437 200 163 71 483 357 601 537 126 192 175 339 163 493 -19 237 -194 474
-418 565 -84 34 -305 64 -414 57z"/>
<path d="M8092 4876 c-9 -5 -40 -31 -69 -58 -65 -61 -118 -83 -224 -96 -46 -6
-93 -14 -104 -19 -51 -20 -136 -80 -141 -98 -5 -19 -60 -65 -113 -94 -14 -8
-59 -16 -101 -19 -77 -5 -169 -39 -171 -65 -5 -47 29 -79 104 -96 77 -19 138
-10 221 34 103 54 137 65 276 85 122 18 128 20 278 97 156 80 190 104 193 138
8 77 -2 114 -38 158 -39 45 -71 54 -111 33z"/>
</g>
</svg>
