<?xml version="1.0" encoding="utf-8"?>
<!-- Generator: Adobe Illustrator 24.0.1, SVG Export Plug-In . SVG Version: 6.00 Build 0)  -->
<svg version="1.1" xmlns="http://www.w3.org/2000/svg" xmlns:xlink="http://www.w3.org/1999/xlink" x="0px" y="0px"
	 viewBox="0 0 800 800" style="enable-background:new 0 0 800 800;" xml:space="preserve">
<style type="text/css">
	.st0{display:none;}
	.st1{display:inline;fill:#FFFFFF;}
	.st2{display:inline;}
</style>
<g id="Layer_1" class="st0">
	<path class="st1" d="M149,515.36c0-49.12,0-98.24,0-147.36c81.92,0,163.84,0,245.76,0c0,49.12,0,98.24,0,147.36
		C312.84,515.36,230.92,515.36,149,515.36z M300.83,446.41c-1.07-0.9-1.11-1.87-0.63-2.97c1.59-3.7,3.18-7.4,4.74-11.12
		c0.66-1.56,0.22-2.88-1.09-3.43c-1.31-0.55-2.54,0.05-3.22,1.62c-1.11,2.56-2.17,5.15-3.32,7.69c-0.2,0.44-0.79,0.69-1.2,1.03
		c-0.17-0.47-0.52-0.97-0.47-1.42c0.33-3.25,0.73-6.5,1.11-9.75c0.18-1.5-0.59-2.63-1.92-2.84c-1.43-0.22-2.53,0.64-2.74,2.18
		c-0.2,1.46-0.34,2.93-0.51,4.4c-0.24,2.02-0.45,4.04-0.75,6.06c-0.05,0.32-0.47,0.59-0.73,0.89c-0.22-0.29-0.51-0.55-0.63-0.87
		c-0.12-0.32-0.07-0.71-0.1-1.07c-0.19-2.31-0.36-4.61-0.58-6.92c-0.18-1.87-1.06-2.79-2.52-2.7c-1.45,0.08-2.24,1.15-2.13,2.99
		c0.08,1.47,0.24,2.94,0.36,4.41c0.13,1.63,0.28,3.26,0.36,4.89c0.02,0.29-0.24,0.59-0.37,0.89c-0.27-0.23-0.59-0.43-0.79-0.71
		c-0.17-0.25-0.21-0.6-0.3-0.9c-0.57-1.79-1.11-3.58-1.72-5.35c-0.34-1.01-1.12-1.58-2.17-1.6c-0.99-0.01-1.85,0.46-2.15,1.43
		c-0.18,0.6-0.16,1.35,0.03,1.97c1.39,4.61,3.16,9.12,3.45,14.01c0.05,0.82,0.38,1.63,0.67,2.41c1.24,3.26,3.53,5.33,7.01,6.04
		c3.67,0.75,7.02,0.02,9.91-2.34c3.56-2.9,7.04-5.9,10.53-8.88c0.9-0.76,0.86-1.53-0.01-2.33c-1.46-1.35-3.58-1.41-5.26-0.1
		C302.73,444.77,301.81,445.58,300.83,446.41z M332.42,446.38c-0.94-0.8-1.86-1.61-2.83-2.37c-1.68-1.33-3.92-1.24-5.36,0.18
		c-0.74,0.73-0.79,1.49,0,2.16c3.62,3.09,7.22,6.19,10.9,9.19c3.01,2.45,6.52,2.95,10.2,2c4.38-1.13,6.6-4.35,7.1-8.56
		c0.52-4.33,1.73-8.42,3.09-12.51c0.15-0.45,0.29-0.91,0.42-1.37c0.45-1.55-0.09-2.73-1.46-3.18c-1.33-0.43-2.48,0.25-3,1.81
		c-0.61,1.86-1.18,3.73-1.83,5.57c-0.14,0.41-0.56,0.72-0.86,1.07c-0.13-0.41-0.39-0.84-0.37-1.24c0.21-3.07,0.5-6.13,0.71-9.19
		c0.11-1.64-0.73-2.68-2.13-2.77c-1.35-0.08-2.33,0.79-2.48,2.34c-0.26,2.66-0.42,5.33-0.69,7.99c-0.04,0.43-0.43,0.83-0.65,1.24
		c-0.27-0.41-0.71-0.79-0.77-1.23c-0.45-3.32-0.82-6.65-1.21-9.98c-0.19-1.58-1.2-2.48-2.61-2.33c-1.44,0.15-2.25,1.33-2.04,2.95
		c0.2,1.58,0.4,3.17,0.58,4.75c0.2,1.74,0.42,3.49,0.55,5.24c0.03,0.34-0.32,0.71-0.5,1.07c-0.37-0.22-0.75-0.42-1.09-0.69
		c-0.14-0.11-0.16-0.36-0.24-0.54c-1.11-2.6-2.21-5.22-3.35-7.81c-0.58-1.31-1.86-1.8-3.07-1.3c-1.22,0.51-1.72,1.74-1.23,3.09
		c0.18,0.49,0.39,0.96,0.6,1.44c1.43,3.34,2.86,6.68,4.28,10.02C333.55,444.51,333.61,445.52,332.42,446.38z M202.05,427.98
		c-0.94,0.15-1.9,0.25-2.83,0.47c-5.77,1.4-9.33,6.34-8.14,11.94c1.58,7.48,4.92,14.23,9.62,20.26c1.46,1.87,3.98,2.39,6.2,1.56
		c2.34-0.88,3.85-2.88,3.75-5.29c-0.05-1.17-0.39-2.35-0.76-3.47c-1.02-3.03-1.59-6.12-1.16-9.3c0.32-2.41,0.85-4.78,1.29-7.17
		C210.98,431.77,207.38,427.72,202.05,427.98z M244.62,428.11c-4.13-0.04-7.05,2.2-7.63,6.09c-0.18,1.23,0.03,2.54,0.24,3.79
		c0.55,3.26,1.44,6.52,0.8,9.84c-0.47,2.45-1.27,4.84-1.94,7.25c-0.79,2.83,0.33,5.52,2.83,6.81c2.59,1.33,5.43,0.71,7.27-1.66
		c4.37-5.61,7.6-11.81,9.46-18.66c0.44-1.63,0.5-3.52,0.16-5.18C254.79,431.39,250.26,428.16,244.62,428.11z M234.21,424.54
		c-0.01,2.33,1.71,4.33,3.64,4.24c1.79-0.08,3.18-1.93,3.02-4.04c-0.16-2.19-1.79-3.91-3.65-3.85
		C235.51,420.95,234.22,422.51,234.21,424.54z M357.42,471.64c1.73,2.99,6.04,4.68,9.6,3.53c0.45-0.15,0.96-0.81,1.02-1.29
		c0.06-0.42-0.47-0.92-0.77-1.45c-0.3,0.35-0.5,0.57-0.72,0.83c-0.97-0.72-1.88-1.4-2.78-2.08c0.11-0.05,0.22-0.1,0.32-0.15
		c-0.06-0.44,0.05-1.08-0.19-1.28c-1.1-0.91-2.3-1.71-3.47-2.53c-0.17-0.12-0.46-0.17-0.66-0.11c-0.54,0.16-1.06,0.4-1.88,0.72
		c0.27,0.52,0.64,1.23,1.01,1.95c0.04-0.01,0.09,0,0.12-0.03c0.89-0.82,2.07-1.08,2.48-0.4c0.31,0.51,0.43,1.47,0.14,1.92
		c-0.49,0.78-1.38,1.16-2.27,0.32c-0.07-0.07-0.19-0.14-0.29-0.13C358.53,471.51,357.97,471.58,357.42,471.64z M213.11,424.67
		c-0.01-1.75-0.88-3.1-2.3-3.54c-1.24-0.39-2.61,0.15-3.5,1.44c-0.97,1.41-1.16,2.94-0.43,4.52c0.86,1.87,2.96,2.37,4.58,1.11
		C212.6,427.32,213.11,426.1,213.11,424.67z M352.75,471.01c0.01,0.18,0.02,0.37,0.03,0.55c-0.6,0.08-1.34,0.41-1.78,0.17
		c-0.56-0.3-0.87-1.05-1.26-1.56c-0.12,0.26-0.29,0.75-0.55,1.2c-0.32,0.56-0.83,0.76-1.19,0.1c-0.39-0.71-0.61-1.51-0.9-2.26
		c0.12-0.09,0.25-0.18,0.37-0.28c0.37,0.37,0.74,0.74,1.18,1.19c0.4-0.99,0.82-1.97,1.17-2.97c0.09-0.25-0.06-0.59-0.09-0.88
		c-0.33,0.04-0.72-0.01-0.99,0.15c-0.79,0.46-1.51,1.03-2.29,1.51c-0.34,0.21-0.74,0.32-1.12,0.47c0.21,0.1,0.43,0.21,0.64,0.31
		c0.36,0.5,1.02,1,1.01,1.49c-0.01,0.59-0.49,1.27-0.96,1.72c-1.02,0.99-2.16,1.87-3.39,2.91c2.31,0.91,3.42,0.52,4.24-1.19
		c0.1-0.22,0.24-0.42,0.31-0.65c0.28-0.89,0.84-1,1.67-0.75c1.24,0.38,2.5,0.66,3.85,1.01c0.14-1.37,0.26-2.53,0.37-3.7
		c-0.06-0.01-0.12-0.02-0.18-0.03c-0.05,0.35-0.11,0.7-0.16,1.05c-0.54,0.06-1.01,0.11-1.49,0.16c0.01,0.04,0.02,0.09,0.02,0.13
		C351.78,470.92,352.26,470.97,352.75,471.01z M195.29,424.2c0.18,0.63,0.2,1.32,0.55,1.73c0.47,0.55,1.2,1.2,1.83,1.22
		c0.56,0.02,1.35-0.65,1.68-1.22c0.68-1.18,0.55-2.48-0.22-3.63c-0.87-1.3-2.45-1.24-3.22,0.12
		C195.62,422.96,195.49,423.61,195.29,424.2z M247.61,424.6c0.01,0.09,0.01,0.29,0.03,0.49c0.13,1.25,0.91,2.22,1.86,2.33
		c0.99,0.11,1.87-0.62,2.26-1.9c0.08-0.26,0.14-0.54,0.16-0.81c0.13-1.66-0.8-3.11-2.03-3.18
		C248.7,421.45,247.63,422.83,247.61,424.6z M203.26,420.52c-1.29,0.04-2.41,1.47-2.34,2.98c0.07,1.47,1.08,2.58,2.32,2.54
		c1.31-0.04,2.41-1.42,2.34-2.96C205.52,421.65,204.46,420.49,203.26,420.52z M246.43,423.42c0.01-1.51-1.04-2.83-2.3-2.88
		c-1.22-0.05-2.28,1.2-2.29,2.69c-0.01,1.57,0.99,2.82,2.28,2.86C245.39,426.13,246.42,424.94,246.43,423.42z M194.65,427.76
		c-0.01-1.52-1.04-2.78-2.25-2.75c-1.03,0.03-1.81,1.03-1.77,2.29c0.04,1.38,1.11,2.68,2.23,2.7
		C193.89,430.03,194.65,429.08,194.65,427.76z M252.6,428.07c-0.02,1.25,0.68,2.17,1.69,2.21c1.18,0.05,2.3-1.24,2.34-2.7
		c0.04-1.27-0.74-2.28-1.77-2.28C253.67,425.3,252.63,426.58,252.6,428.07z M257.47,433.88c1.08,0.02,2.1-1.1,2.08-2.21
		c-0.02-0.83-0.34-1.5-1.3-1.56c-0.96-0.06-1.93,1.05-1.94,2.2C256.3,433.19,256.68,433.76,257.47,433.88z M190.82,432.03
		c0.01-1.24-0.91-2.33-1.9-2.29c-0.96,0.04-1.27,0.68-1.28,1.53c-0.01,1.17,0.89,2.23,1.88,2.2
		C190.5,433.44,190.77,432.78,190.82,432.03z M333.01,467.63c-0.11-0.13-0.21-0.26-0.32-0.38c-0.43,0.27-1.11,0.46-1.22,0.82
		c-0.11,0.39,0.32,0.93,0.51,1.4c0.13-0.04,0.27-0.08,0.4-0.12C332.6,468.78,332.8,468.2,333.01,467.63z M342.26,472.34
		c-0.51,0.46-0.9,0.8-1.54,1.36c0.9,0.19,1.46,0.31,2.33,0.5C342.72,473.43,342.53,472.98,342.26,472.34z"/>
	<path class="st2" d="M300.83,446.41c0.98-0.82,1.9-1.64,2.87-2.39c1.69-1.31,3.8-1.25,5.26,0.1c0.86,0.8,0.9,1.57,0.01,2.33
		c-3.49,2.98-6.97,5.98-10.53,8.88c-2.89,2.36-6.24,3.09-9.91,2.34c-3.48-0.71-5.76-2.77-7.01-6.04c-0.3-0.78-0.62-1.6-0.67-2.41
		c-0.29-4.89-2.06-9.4-3.45-14.01c-0.18-0.61-0.21-1.36-0.03-1.97c0.3-0.97,1.16-1.44,2.15-1.43c1.05,0.01,1.83,0.59,2.17,1.6
		c0.6,1.77,1.15,3.57,1.72,5.35c0.1,0.3,0.13,0.65,0.3,0.9c0.2,0.28,0.52,0.48,0.79,0.71c0.13-0.3,0.39-0.6,0.37-0.89
		c-0.09-1.63-0.23-3.26-0.36-4.89c-0.12-1.47-0.27-2.94-0.36-4.41c-0.1-1.85,0.68-2.91,2.13-2.99c1.46-0.08,2.35,0.83,2.52,2.7
		c0.22,2.3,0.39,4.61,0.58,6.92c0.03,0.36-0.02,0.74,0.1,1.07c0.12,0.32,0.42,0.58,0.63,0.87c0.25-0.29,0.68-0.56,0.73-0.89
		c0.3-2.01,0.51-4.04,0.75-6.06c0.17-1.47,0.32-2.93,0.51-4.4c0.21-1.54,1.3-2.4,2.74-2.18c1.33,0.2,2.09,1.33,1.92,2.84
		c-0.38,3.25-0.79,6.49-1.11,9.75c-0.05,0.45,0.31,0.94,0.47,1.42c0.41-0.34,1-0.6,1.2-1.03c1.16-2.54,2.22-5.12,3.32-7.69
		c0.68-1.57,1.9-2.17,3.22-1.62c1.31,0.55,1.75,1.87,1.09,3.43c-1.57,3.71-3.15,7.41-4.74,11.12
		C299.72,444.53,299.76,445.5,300.83,446.41z"/>
	<path class="st2" d="M332.42,446.38c1.19-0.86,1.13-1.87,0.67-2.94c-1.42-3.34-2.85-6.68-4.28-10.02c-0.2-0.48-0.42-0.95-0.6-1.44
		c-0.49-1.35,0.01-2.58,1.23-3.09c1.21-0.51,2.49-0.01,3.07,1.3c1.15,2.59,2.24,5.2,3.35,7.81c0.08,0.18,0.1,0.43,0.24,0.54
		c0.34,0.26,0.72,0.46,1.09,0.69c0.17-0.36,0.52-0.73,0.5-1.07c-0.13-1.75-0.35-3.49-0.55-5.24c-0.18-1.58-0.38-3.17-0.58-4.75
		c-0.21-1.62,0.6-2.8,2.04-2.95c1.41-0.15,2.42,0.75,2.61,2.33c0.4,3.33,0.76,6.66,1.21,9.98c0.06,0.44,0.51,0.82,0.77,1.23
		c0.23-0.41,0.61-0.81,0.65-1.24c0.27-2.66,0.44-5.33,0.69-7.99c0.15-1.55,1.13-2.42,2.48-2.34c1.4,0.09,2.25,1.12,2.13,2.77
		c-0.21,3.07-0.5,6.12-0.71,9.19c-0.03,0.4,0.24,0.83,0.37,1.24c0.29-0.35,0.71-0.66,0.86-1.07c0.65-1.84,1.21-3.71,1.83-5.57
		c0.52-1.56,1.67-2.24,3-1.81c1.37,0.44,1.91,1.63,1.46,3.18c-0.13,0.46-0.27,0.92-0.42,1.37c-1.36,4.09-2.57,8.18-3.09,12.51
		c-0.5,4.21-2.72,7.43-7.1,8.56c-3.68,0.94-7.19,0.45-10.2-2c-3.68-3-7.29-6.1-10.9-9.19c-0.79-0.68-0.74-1.43,0-2.16
		c1.44-1.42,3.68-1.51,5.36-0.18C330.56,444.77,331.48,445.59,332.42,446.38z"/>
	<path class="st2" d="M202.05,427.98c5.33-0.26,8.93,3.79,7.96,8.99c-0.44,2.39-0.97,4.77-1.29,7.17c-0.42,3.18,0.14,6.27,1.16,9.3
		c0.38,1.12,0.71,2.31,0.76,3.47c0.1,2.41-1.41,4.42-3.75,5.29c-2.22,0.83-4.75,0.31-6.2-1.56c-4.7-6.04-8.03-12.79-9.62-20.26
		c-1.19-5.59,2.37-10.54,8.14-11.94C200.14,428.23,201.1,428.14,202.05,427.98z"/>
	<path class="st2" d="M244.62,428.11c5.64,0.06,10.18,3.29,11.19,8.28c0.34,1.66,0.28,3.55-0.16,5.18
		c-1.86,6.85-5.09,13.06-9.46,18.66c-1.84,2.37-4.68,2.99-7.27,1.66c-2.5-1.29-3.61-3.98-2.83-6.81c0.67-2.41,1.47-4.8,1.94-7.25
		c0.63-3.32-0.26-6.57-0.8-9.84c-0.21-1.25-0.42-2.56-0.24-3.79C237.57,430.31,240.49,428.07,244.62,428.11z"/>
	<path class="st2" d="M234.21,424.54c0.01-2.03,1.3-3.59,3.01-3.65c1.86-0.06,3.49,1.66,3.65,3.85c0.16,2.11-1.23,3.97-3.02,4.04
		C235.92,428.87,234.21,426.87,234.21,424.54z"/>
	<path class="st2" d="M357.42,471.64c0.55-0.06,1.11-0.13,1.67-0.18c0.09-0.01,0.21,0.06,0.29,0.13c0.89,0.84,1.78,0.46,2.27-0.32
		c0.28-0.45,0.16-1.41-0.14-1.92c-0.41-0.69-1.59-0.42-2.48,0.4c-0.02,0.02-0.08,0.02-0.12,0.03c-0.37-0.72-0.74-1.43-1.01-1.95
		c0.81-0.32,1.33-0.56,1.88-0.72c0.19-0.06,0.49-0.01,0.66,0.11c1.18,0.81,2.38,1.61,3.47,2.53c0.25,0.21,0.14,0.84,0.19,1.28
		c-0.11,0.05-0.22,0.1-0.32,0.15c0.91,0.68,1.81,1.35,2.78,2.08c0.22-0.26,0.42-0.48,0.72-0.83c0.31,0.53,0.83,1.03,0.77,1.45
		c-0.07,0.48-0.57,1.14-1.02,1.29C363.46,476.32,359.15,474.63,357.42,471.64z"/>
	<path class="st2" d="M213.11,424.67c0,1.43-0.5,2.65-1.65,3.54c-1.63,1.26-3.73,0.75-4.58-1.11c-0.72-1.57-0.54-3.11,0.43-4.52
		c0.89-1.29,2.26-1.83,3.5-1.44C212.23,421.57,213.1,422.92,213.11,424.67z"/>
	<path class="st2" d="M352.75,471.01c-0.48-0.05-0.97-0.1-1.45-0.15c-0.01-0.04-0.02-0.09-0.02-0.13c0.47-0.05,0.95-0.1,1.49-0.16
		c0.05-0.35,0.11-0.7,0.16-1.05c0.06,0.01,0.12,0.02,0.18,0.03c-0.12,1.17-0.24,2.34-0.37,3.7c-1.35-0.35-2.61-0.64-3.85-1.01
		c-0.83-0.25-1.39-0.14-1.67,0.75c-0.07,0.23-0.21,0.43-0.31,0.65c-0.82,1.72-1.93,2.1-4.24,1.19c1.23-1.04,2.37-1.91,3.39-2.91
		c0.46-0.45,0.94-1.13,0.96-1.72c0.01-0.49-0.65-0.99-1.01-1.49c-0.21-0.1-0.43-0.21-0.64-0.31c0.37-0.15,0.78-0.26,1.12-0.47
		c0.78-0.48,1.5-1.05,2.29-1.51c0.27-0.16,0.66-0.11,0.99-0.15c0.04,0.3,0.18,0.63,0.09,0.88c-0.35,1-0.77,1.98-1.17,2.97
		c-0.44-0.45-0.81-0.82-1.18-1.19c-0.12,0.09-0.25,0.18-0.37,0.28c0.29,0.76,0.51,1.56,0.9,2.26c0.36,0.65,0.86,0.46,1.19-0.1
		c0.26-0.45,0.43-0.94,0.55-1.2c0.38,0.51,0.7,1.26,1.26,1.56c0.43,0.23,1.17-0.09,1.78-0.17
		C352.76,471.38,352.75,471.2,352.75,471.01z"/>
	<path class="st2" d="M195.29,424.2c0.2-0.6,0.33-1.24,0.63-1.78c0.76-1.37,2.35-1.42,3.22-0.12c0.77,1.15,0.9,2.45,0.22,3.63
		c-0.33,0.57-1.12,1.24-1.68,1.22c-0.63-0.02-1.35-0.66-1.83-1.22C195.49,425.53,195.47,424.83,195.29,424.2z"/>
	<path class="st2" d="M247.61,424.6c0.02-1.77,1.09-3.16,2.29-3.08c1.22,0.08,2.15,1.53,2.03,3.18c-0.02,0.27-0.08,0.55-0.16,0.81
		c-0.39,1.28-1.27,2.01-2.26,1.9c-0.95-0.11-1.73-1.08-1.86-2.33C247.63,424.9,247.62,424.7,247.61,424.6z"/>
	<path class="st2" d="M203.26,420.52c1.2-0.04,2.26,1.13,2.32,2.56c0.07,1.54-1.02,2.92-2.34,2.96c-1.24,0.04-2.25-1.07-2.32-2.54
		C200.85,422,201.98,420.57,203.26,420.52z"/>
	<path class="st2" d="M246.43,423.42c-0.01,1.52-1.03,2.71-2.31,2.67c-1.3-0.04-2.29-1.28-2.28-2.86c0.01-1.5,1.07-2.75,2.29-2.69
		C245.38,420.6,246.44,421.91,246.43,423.42z"/>
	<path class="st2" d="M194.65,427.76c0.01,1.32-0.75,2.27-1.79,2.25c-1.12-0.02-2.19-1.33-2.23-2.7c-0.03-1.27,0.74-2.27,1.77-2.29
		C193.61,424.98,194.64,426.24,194.65,427.76z"/>
	<path class="st2" d="M252.6,428.07c0.02-1.49,1.07-2.77,2.26-2.77c1.02,0,1.81,1.02,1.77,2.28c-0.05,1.46-1.17,2.75-2.34,2.7
		C253.29,430.24,252.58,429.32,252.6,428.07z"/>
	<path class="st2" d="M257.47,433.88c-0.79-0.11-1.17-0.69-1.16-1.56c0.01-1.15,0.97-2.26,1.94-2.2c0.96,0.06,1.28,0.73,1.3,1.56
		C259.58,432.78,258.55,433.9,257.47,433.88z"/>
	<path class="st2" d="M190.82,432.03c-0.05,0.75-0.32,1.4-1.29,1.44c-1,0.03-1.9-1.03-1.88-2.2c0.01-0.85,0.32-1.49,1.28-1.53
		C189.91,429.7,190.82,430.79,190.82,432.03z"/>
	<path class="st2" d="M333.01,467.63c-0.21,0.57-0.41,1.15-0.62,1.72c-0.13,0.04-0.27,0.08-0.4,0.12c-0.19-0.47-0.63-1.02-0.51-1.4
		c0.1-0.36,0.79-0.55,1.22-0.82C332.8,467.37,332.9,467.5,333.01,467.63z"/>
	<path class="st2" d="M342.26,472.34c0.27,0.64,0.46,1.09,0.79,1.86c-0.87-0.19-1.43-0.31-2.33-0.5
		C341.36,473.14,341.75,472.8,342.26,472.34z"/>
</g>
<g id="Layer_2" class="st0">
	<g class="st2">
		<path d="M574.57,39.4c-22-6.82-46.18,2.6-61.91,25.43c-17.21,24.96-20.48,52-7.68,79.83c15.19,33.02,52.27,41.94,81.01,19.69
			c20.29-15.71,29.17-37.12,29.19-62.46C615.07,70.9,599.67,47.19,574.57,39.4z"/>
		<path d="M342.38,145.73c9.96,0.27,23.88-11.52,29.75-21.64c12.09-20.86,9.69-43.77-3.83-64.07
			c-15.29-22.96-43.36-21.99-56.85,2.13c-5.36,9.59-7.53,20.95-11.15,31.5c3.25,11.08,3.57,23.37,9.79,30.61
			C318.46,134,331.22,145.43,342.38,145.73z"/>
		<path d="M440.83,126.25c23.23-0.77,42.5-25.18,41.31-52.32c-1.11-25.37-19.73-45.96-40.96-45.28
			c-22.72,0.73-42.52,26.01-41.28,52.71C401.11,107.39,418.96,126.98,440.83,126.25z"/>
		<path d="M257.25,196.2c18.41,0.38,31.83-16.42,31.7-39.69c-0.15-26.86-18.35-49.11-39.74-48.58
			c-18.26,0.45-31.93,18.13-31.32,40.48C218.55,172.78,237.51,195.8,257.25,196.2z"/>
		<path d="M187.8,191.53c-16.89,0.7-22.44,11.96-22.62,27.03c-0.25,20.66,15.66,39.43,33.26,38.82
			c17.19-0.6,22.04-12.21,22.86-25.41C221.41,210.07,205.24,190.8,187.8,191.53z"/>
		<path d="M558.09,610.35c-18.03-53.52-28.04-108.08-20.56-164.26c5.67-42.5,14.97-84.52,22.83-126.73
			c17.14-92-46.48-163.55-140.65-158.9c-16.68,2.73-33.62,4.39-50,8.36c-101.99,24.72-164.82,112.09-143.88,210.9
			c27.99,132.11,86.91,251.39,169.94,358.06c25.72,33.04,70.37,42.2,109.6,27.5c41.28-15.48,68.04-50.9,66.22-93.55
			C570.7,651.08,564.76,630.14,558.09,610.35z M450.52,510.04H349.76V382.27h43.08v94.37h57.68V510.04z"/>
	</g>
</g>
<g id="Layer_3">
	<g>
		<path d="M256.82,164.94c31.79-1.37,56.43-34.35,53.65-71.8c-2.89-38.92-31.81-69.44-64.79-68.37
			c-30.48,0.99-53.39,28.76-53.49,64.82C192.09,130.93,222.53,166.42,256.82,164.94z"/>
		<path d="M463.85,140.65c17.53,2,33.17-11.03,40.13-33.77c1.43-4.67,2.5-9.57,2.88-14.44c2.28-29.43-14.23-55.2-35.98-56.55
			c-21.42-1.33-40.38,23.3-40.73,54.73c0.11,1.68,0.22,5.2,0.59,8.7C433.11,121.49,446.95,138.72,463.85,140.65z"/>
		<path d="M368.12,117.03c22.58,0.69,40.77-20.36,40.95-47.38c0.18-26.8-18.5-50.2-40.88-51.2c-21.65-0.97-40.53,21.26-40.65,47.85
			C327.42,94.25,345.07,116.33,368.12,117.03z"/>
		<path d="M548.77,191.57c20.9,0.88,40.77-22.02,41.61-47.98c0.73-22.47-13.22-40.49-31.42-40.55
			c-21.15-0.08-39.72,22.66-40.16,49.2C518.44,174.42,530.93,190.82,548.77,191.57z"/>
		<path d="M619.06,188.53c-17.14-1-34.3,18.72-34.44,39.15c-0.1,15.42,6.6,25.65,20.65,27.68c19.16,0.44,37.35-19.45,36.91-39.17
			C641.86,201.44,636.08,189.52,619.06,188.53z"/>
		<path d="M391.82,406.29h-15.78v30.09h15.78c5.99,0,10.43-1.34,13.3-4.04c2.87-2.69,4.31-6.36,4.31-11.01
			c0-4.65-1.44-8.32-4.31-11.01C402.25,407.64,397.81,406.29,391.82,406.29z"/>
		<path d="M376.93,152.9c-73.36-0.74-125.13,39.13-135.49,108.2c-3.26,21.76,0.54,45.15,4.24,67.27
			c9.7,57.94,25.49,115.77,14.23,174.71c-8.32,43.55-22.59,85.97-34.49,128.82c-13.95,50.22,5.79,98.02,50.25,120.89
			c46.01,23.67,96.47,12.53,129.2-29.49c77.57-99.55,135.02-209.76,167.98-331.48c7.84-28.96,8.82-62.53,2.85-91.94
			C557.71,211.26,477.11,153.9,376.93,152.9z M409.62,501.33l-21.78-32.29h-11.79v32.29h-43.3V372.9h61.83
			c11.99,0,22.35,1.96,31.1,5.87c8.74,3.92,15.5,9.51,20.27,16.79c4.77,7.28,7.16,15.87,7.16,25.78s-2.38,18.44-7.16,25.6
			c-4.17,6.25-9.85,11.22-17.05,14.9l26.96,39.5H409.62z"/>
	</g>
</g>
<g id="Layer_4" class="st0">
	<path class="st2" d="M720.95,437.96c-29.33-27.16-71.78-28.35-105.65-2.02c-19.48,15.14-37.95,31.57-57.63,48.06
		c-21.48-18.14-22.18-37.61-12.73-59.61c31.9-74.3,63.76-148.62,95.21-223.11c13.25-31.39,4.39-57.84-21.91-68.84
		c-26.38-11.04-50.92,1.05-64.54,32.53c-22.26,51.43-43.48,103.32-66.73,154.3c-3.99,8.75-15.85,13.91-24.08,20.73
		c-3.37-9.5-10.44-19.38-9.53-28.45c6.55-65.3,14.72-130.44,22.37-195.63c3.54-30.15-11.81-52.86-38.45-56.93
		c-28.72-4.39-50.76,12.75-54.9,43.72c-3.92,29.35-6.82,58.84-10.28,88.25c-4.78,40.56-9.1,81.18-15.08,121.56
		c-0.96,6.51-9.53,11.89-14.59,17.79c-4.38-5.78-10.27-10.99-12.72-17.5c-2.44-6.46-1.36-14.23-1.95-21.41
		c-3.8-46.29-7.2-92.61-11.59-138.84c-3.56-37.54-21.34-55.9-50.67-54.24c-29.1,1.65-44.88,23.07-42.79,60.1
		c1.67,29.57,4.81,59.05,7.19,88.58c2.64,32.73,5.61,65.44,7.32,98.22c0.3,5.79-4.83,11.87-7.45,17.81
		c-5.39-4.71-11.89-8.65-15.85-14.35c-3.49-5.01-4.12-12-6.06-18.1c-11.41-35.84-22.36-71.83-34.43-107.45
		c-6.84-20.2-22.51-31.81-43.57-32.08c-19.8-0.26-37.14,9.21-43.1,28.61c-3.71,12.05-3.13,27.19,0.55,39.45
		c27.8,92.6,63.41,183.11,69.24,281.24c0.97,16.36,7.54,32.76,13.49,48.4c24.96,65.5,70.91,106.92,140.67,121.19
		c73.76,15.08,140.85,0.44,198.93-46.91c71.44-58.24,141.31-118.42,211.44-178.25C739.04,469.45,738.24,453.98,720.95,437.96z
		 M424.49,574.1H310.03V428.95h48.93v107.2h65.52V574.1z"/>
</g>
<g id="Layer_5" class="st0">
	<path class="st2" d="M684.42,190.78c-26.66-8.61-49.66,5.05-60.02,36.31c-12.31,37.16-23.57,74.68-36.61,111.58
		c-2.88,8.15-11.31,14.35-17.19,21.45c-2.59-8.28-7.89-16.75-7.34-24.82c4.18-61.41,9.99-122.71,14.28-184.11
		c2.3-32.86-14.7-53.69-42.73-55.4c-27-1.65-46.64,15.85-49.65,46.92c-5.16,53.31-8.5,106.79-13.92,160.07
		c-0.88,8.62-8.57,16.55-13.12,24.8c-5.35-8.17-14.3-15.86-15.47-24.59c-8.94-66.53-16.33-133.26-24.26-199.92
		c-3.77-31.73-23.98-49.75-52.3-46.76c-28.85,3.04-45.01,26.58-40.87,59.08c4.04,31.71,7.97,63.43,11.65,95.18
		c4.05,34.94,8.42,69.86,11.03,104.91c0.51,6.85-6.43,14.26-9.93,21.41c-7.34-4.49-15.09-8.46-21.82-13.73
		c-2.74-2.15-3.24-7.13-4.81-10.81c-22.32-52.18-44.18-104.56-67.17-156.44c-11.59-26.15-37.24-36.14-61.4-26
		c-24.43,10.25-34.39,34.96-24.59,61.9c3.55,9.76,7.89,19.24,11.97,28.8c28.55,66.89,57.22,133.74,85.65,200.68
		c9.14,21.51,10.36,41.74-13.52,58.99c-18.9-15.94-37.32-32.3-56.62-47.55c-33.73-26.64-78.6-24.81-107.35,3.62
		c-14.85,14.68-15.81,29.76,0.05,43.3c72.43,61.84,144.63,123.98,218.45,184.13c60.27,49.11,130.62,59.06,204.32,40.13
		c87.83-22.56,132.2-87.18,142.25-171.46c10.34-86.68,34.67-168.67,61.9-250.54c3.03-9.1,5.72-18.31,8.41-27.51
		C722.73,223.35,711.79,199.62,684.42,190.78z M457.13,572.01l-24.57-36.42h-13.3v36.42h-48.84V427.15h69.74
		c13.52,0,25.21,2.21,35.08,6.62c9.86,4.42,17.49,10.73,22.87,18.94c5.38,8.21,8.07,17.9,8.07,29.08c0,11.17-2.69,20.8-8.07,28.87
		c-4.7,7.05-11.11,12.65-19.23,16.8l30.4,44.56H457.13z M452.06,469.37c3.24,3.04,4.86,7.17,4.86,12.42c0,5.24-1.62,9.38-4.86,12.42
		c-3.24,3.04-8.24,4.55-15,4.55h-17.8v-33.94h17.8C443.81,464.82,448.82,466.34,452.06,469.37z"/>
</g>
</svg>
